<?xml version="1.0" encoding="utf-8"?>
<!-- Generator: Adobe Illustrator 27.5.0, SVG Export Plug-In . SVG Version: 6.00 Build 0)  -->
<svg version="1.1" xmlns="http://www.w3.org/2000/svg" xmlns:xlink="http://www.w3.org/1999/xlink" x="0px" y="0px"
	 viewBox="0 0 500 500" style="enable-background:new 0 0 500 500;" xml:space="preserve">
<g id="Camada_1">
	<rect style="fill:#FFFFFF;" width="500" height="500"/>
</g>
<g id="OBJECTS">
	<path style="fill:#FFE3DF;" d="M50.439,236.907c2.435-26.017,11.452-51.087,26.907-72.158c17.561-23.942,46.858-48.934,93.8-53.135
		c93.884-8.401,90.345,74.316,174.023,89.138c83.678,14.822,105.171,31.337,109.931,89.304
		c6.301,76.733-58.584,161.792-191.038,152.34C139.03,433.477,37.57,374.399,50.439,236.907z"/>
	<path style="fill:#EAEAEA;" d="M439.651,402.892H56.162c-2.761,0-5-2.239-5-5V159.165c0-2.761,2.239-5,5-5h383.488
		c2.761,0,5,2.239,5,5v238.726C444.651,400.653,442.412,402.892,439.651,402.892z"/>
	<g>
		<path style="fill:#FF725E;" d="M421.19,169.506H71.256c-2.151,0-3.896,1.744-3.896,3.895v38.071c0,2.151,1.744,3.895,3.896,3.895
			H421.19c2.151,0,3.895-1.744,3.895-3.895v-38.071C425.086,171.25,423.342,169.506,421.19,169.506z"/>
		<text transform="matrix(1 0 0 1 91.4783 201.1774)" style="fill:#FFFFFF; font-family:'Kanit-Bold'; font-size:23.9463px;">BLOG</text>
	</g>
	<path style="fill:#455A64;" d="M419.709,228.799H234.066c-2.969,0-5.377,2.407-5.377,5.377v140.413c0,2.97,2.407,5.377,5.377,5.377
		h185.643c2.969,0,5.377-2.407,5.377-5.377V234.176C425.086,231.206,422.678,228.799,419.709,228.799z"/>
	<g>
		<path style="fill:#80392F;" d="M213.873,304.382H72.361c-2.761,0-5,2.239-5,5v65.583c0,2.761,2.239,5,5,5h141.512
			c2.762,0,5-2.239,5-5v-65.583C218.873,306.62,216.634,304.382,213.873,304.382z"/>
		<g>
			<circle style="fill:#FFFFFF;" cx="143.117" cy="342.173" r="15.355"/>
			<path style="fill:#263238;" d="M139.98,337.482v9.383c0,0.974,1.104,1.538,1.893,0.968l6.496-4.692
				c0.66-0.477,0.66-1.459,0-1.936l-6.496-4.691C141.083,335.943,139.98,336.508,139.98,337.482z"/>
		</g>
		<path style="fill:#FF725E;" d="M218.85,375.191H67.384c0.121,2.654,2.293,4.774,4.977,4.774h141.512
			C216.557,379.965,218.729,377.845,218.85,375.191z"/>
	</g>
	<g>
		<path style="fill:#455A64;" d="M213.873,228.799H72.361c-2.761,0-5,2.239-5,5v21.787c0,2.761,2.239,5,5,5h141.512
			c2.762,0,5-2.239,5-5v-21.787C218.873,231.037,216.634,228.799,213.873,228.799z"/>
		<path style="fill:#263238;" d="M67.361,255.103v0.483c0,2.761,2.239,5,5,5h141.512c2.761,0,5-2.239,5-5v-0.483H67.361z"/>
	</g>
	<g>
		<path style="fill:#80392F;" d="M288.954,344.232c0,0-7.554,19.319-8.797,35.733h95.005c0,0-2.947-14.071-11.155-36.547
			c-8.207-22.476-47.539-5.484-47.539-5.484L288.954,344.232z"/>
		<path style="fill:#263238;" d="M312.521,228.139c0,0-27.893,3.381-39.163-13.242c-11.27-16.623,1.69-31.556,9.579-45.362
			c7.889-13.806,9.016-46.771,41.418-41.699c0,0,13.242-8.095,29.866-0.526c16.623,7.569,20.568,39.407,29.302,54.622
			c8.734,15.215,9.293,41.419-16.626,46.49s-43.669-5.918-43.669-5.918L312.521,228.139z"/>
		<path style="fill:#263238;" d="M291.885,333.469l-3.186,9.674c-0.709,2.152,0.195,4.499,2.164,5.621
			c5.433,3.097,17.502,8.418,35.824,8.027c18.409-0.393,30.522-6.484,35.914-9.909c1.917-1.218,2.717-3.606,1.904-5.726
			l-5.78-15.077l-15.114-34.399l0.764-44.337c0,0-14.803-3.567-15.173-3.822c-0.37-0.255-23.303-2.52-23.303-2.52l0.764,64.184
			L291.885,333.469z"/>
		<path style="fill:#FFBE9D;" d="M341.074,221.484v11.566l-0.991,15.862c0,0-3.635,10.244-16.357,8.592
			c-12.722-1.652-13.053-16.357-13.053-16.357v-20.488h30.401V221.484z"/>
		<path style="fill:#E08963;" d="M310.673,236.648c6.684,0.928,21.608,1.204,29.9-12.654c0.179-0.299,0.345-0.587,0.501-0.866
			v-1.645v-0.826h-13.084h-17.318l0,4.893V236.648z"/>
		<path style="fill:#FFBE9D;" d="M344.144,182.426l0.003-0.005c-0.971-1.344-1.767-2.627-2.385-3.724
			c-0.055-0.098-0.197-0.031-0.164,0.076c0.643,2.105,0.843,4.582,0.054,5.332c-1.851,1.76-13.216-13.656-13.243-13.661
			c-0.09-0.153-0.175-0.305-0.263-0.458c-0.003-0.004-0.011-0.016-0.011-0.016l0.002-0.001c-1.797-3.117-3.262-6.165-4.226-8.311
			c-1.055-2.348-2.924-4.259-5.299-5.253c-1.367-0.572-3.098-1.156-5.216-1.62c-6.353-1.393-7.725,0-7.725,0
			c-8.192,16.575-11.79,31.258-13.214,38.591c-0.876,3.469-1.175,7.169-0.77,10.994c1.612,15.228,14.386,27.137,29.688,27.736
			c15.113,0.592,27.944-9.602,31.428-23.503l0.002,0l0.017-0.082c0.113-0.457,0.196-0.925,0.288-1.389
			c1.222,0.382,2.539,0.549,3.906,0.456c3.982-0.27,7.477-2.898,9.04-6.57c1.035-2.431,1.023-4.721,0.466-6.788
			C351.556,194.723,344.144,182.426,344.144,182.426z"/>
		<g>
			<path style="fill:#263238;" d="M308.555,185.648c0,1.378-1.117,2.495-2.496,2.495c-1.378,0-2.496-1.117-2.496-2.495
				c0-1.378,1.117-2.496,2.496-2.496C307.437,183.153,308.555,184.27,308.555,185.648z"/>
			<path style="fill:#263238;" d="M300.887,182.763c0.01-1.17,0.469-2.374,1.375-3.284c0.89-0.936,2.29-1.408,3.576-1.287
				c0.663,0.024,1.332,0.268,1.912,0.614c0.571,0.374,1.021,0.88,1.336,1.43c0.632,1.101,0.824,2.331,0.661,3.49
				c-0.452-1.069-0.955-2.059-1.618-2.815c-0.344-0.362-0.701-0.673-1.103-0.88c-0.41-0.18-0.829-0.335-1.301-0.344
				c-0.956-0.083-1.892,0.14-2.712,0.682C302.189,180.92,301.489,181.772,300.887,182.763z"/>
			<path style="fill:#263238;" d="M333.981,187.766c0,1.378-1.117,2.496-2.496,2.496c-1.378,0-2.496-1.117-2.496-2.496
				s1.117-2.496,2.496-2.496C332.864,185.27,333.981,186.388,333.981,187.766z"/>
			<path style="fill:#E08963;" d="M330.687,210.938c0.533,2.384-1.817,4.939-5.247,5.705c-3.431,0.766-6.643-0.545-7.176-2.93
				c-0.533-2.384,1.817-4.939,5.247-5.705C326.941,207.242,330.154,208.554,330.687,210.938z"/>
			<path style="fill:#263238;" d="M327.313,184.881c0.01-1.17,0.469-2.374,1.375-3.284c0.889-0.936,2.29-1.408,3.576-1.287
				c0.663,0.024,1.332,0.268,1.912,0.614c0.571,0.374,1.021,0.88,1.336,1.43c0.632,1.101,0.824,2.331,0.661,3.49
				c-0.452-1.069-0.955-2.059-1.618-2.815c-0.344-0.362-0.701-0.673-1.103-0.88c-0.41-0.18-0.829-0.335-1.301-0.344
				c-0.957-0.083-1.892,0.14-2.712,0.682C328.615,183.038,327.915,183.89,327.313,184.881z"/>
			<path style="fill:#263238;" d="M312.066,183.439l-0.642,7.372c-0.19,2.443-0.385,4.884-0.358,7.295
				c-0.005,1.203,0.072,2.402,0.286,3.532c0.111,0.558,0.26,1.106,0.496,1.558c0.068,0.103,0.122,0.212,0.196,0.316l0.261,0.302
				c0.156,0.228,0.365,0.376,0.565,0.543c0.197,0.174,0.44,0.255,0.668,0.376c0.249,0.061,0.493,0.157,0.764,0.161
				c0.531,0.07,1.102-0.029,1.656-0.2c1.124-0.331,2.191-0.971,3.191-1.697c-0.779,0.971-1.751,1.809-2.924,2.384
				c-0.589,0.276-1.243,0.486-1.948,0.497c-0.702,0.049-1.433-0.174-2.046-0.539c-0.299-0.196-0.607-0.392-0.835-0.654
				c-0.252-0.239-0.487-0.505-0.685-0.829c-0.373-0.624-0.578-1.271-0.746-1.912c-0.29-1.286-0.376-2.562-0.398-3.824
				c0.003-2.525,0.27-5.008,0.701-7.457C310.696,188.215,311.266,185.795,312.066,183.439z"/>
			<path style="fill:#263238;" d="M312.398,212.072c2.006,0.443,4.004,0.658,5.983,0.662c1.977-0.017,3.934-0.279,5.786-0.866
				c1.852-0.565,3.646-1.387,5.245-2.541c0.853-0.508,1.564-1.206,2.355-1.828c0.766-0.651,1.427-1.415,2.214-2.098
				c-0.517,0.878-1.038,1.786-1.678,2.603c-0.692,0.769-1.33,1.62-2.177,2.251c-1.559,1.426-3.506,2.408-5.525,3.048
				c-2.036,0.613-4.189,0.825-6.278,0.596C316.24,213.671,314.19,213.099,312.398,212.072z"/>
			<path style="fill:#263238;" d="M331.485,204.476c0.469-0.367,1.103-0.399,1.656-0.288c0.568,0.106,1.075,0.393,1.495,0.746
				c0.428,0.352,0.749,0.796,0.988,1.274c0.229,0.482,0.371,1.005,0.349,1.581c-0.52-0.266-0.91-0.565-1.273-0.863
				c-0.383-0.276-0.701-0.58-1.032-0.848c-0.324-0.278-0.639-0.546-0.976-0.816C332.342,205.01,331.993,204.737,331.485,204.476z"/>
			<path style="fill:#263238;" d="M303.164,172.535c1.661-0.04,4.408,0.114,7.936,1.103c0.709,0.199,1.408-0.346,1.239-0.978
				c-0.347-1.297-1.417-3.102-4.649-3.621c-2.585-0.415-4.34,0.979-5.33,2.162C301.886,171.767,302.36,172.555,303.164,172.535z"/>
			<path style="fill:#263238;" d="M327.156,175.37c1.081-0.244,2.71-0.543,4.722-0.603c-1.043-1.343-1.999-2.513-2.644-3.39
				c-1.589,0.577-2.566,1.811-3.129,2.843C325.752,174.868,326.371,175.548,327.156,175.37z"/>
			<path style="fill:#E08963;" d="M353.724,204.461c1.428-0.106,2.781-0.359,3.996-0.86c1.21-0.505,2.266-1.238,3.087-2.205
				l0.573-0.766c0.206-0.246,0.309-0.566,0.482-0.84c0.374-0.54,0.517-1.204,0.814-1.808c0.206-0.638,0.391-1.298,0.597-1.962
				c0.148-0.677,0.294-1.362,0.508-2.06c0.119,0.705,0.17,1.423,0.223,2.148c-0.039,0.718-0.073,1.453-0.198,2.177
				c-0.295,1.444-0.875,2.877-1.857,4.082c-1.02,1.166-2.406,2.016-3.882,2.347C356.603,205.064,355.071,204.972,353.724,204.461z"
				/>
		</g>
		<g>
			<path style="fill:#455A64;" d="M305.671,154.784c0.97-2.202,2.48-4.272,4.705-5.589c1.106-0.656,2.467-1.001,3.815-0.875
				c0.67,0.029,1.347,0.289,1.966,0.566l0.858,0.518c0.271,0.187,0.505,0.406,0.758,0.61c1.918,1.731,3.16,3.883,4.253,6.051
				c1.057,2.19,1.902,4.469,2.449,6.825c-1.131-2.133-2.258-4.237-3.477-6.266c-0.639-0.993-1.234-2.013-1.952-2.929
				c-0.68-0.941-1.423-1.832-2.262-2.555c-0.211-0.174-0.411-0.374-0.63-0.53l-0.672-0.424c-0.466-0.212-0.92-0.403-1.453-0.458
				c-1.035-0.166-2.107,0.057-3.12,0.505C308.884,151.182,307.157,152.907,305.671,154.784z"/>
			<path style="fill:#455A64;" d="M341.652,184.106c0.37-0.87,0.254-1.807,0.106-2.684c-0.158-0.885-0.445-1.751-0.759-2.596
				c-0.682-1.653-1.529-3.321-2.36-4.975c-1.644-3.332-3.324-6.662-4.66-10.204c1.201,1.467,2.255,3.025,3.246,4.62
				c0.998,1.592,1.904,3.237,2.756,4.916c0.817,1.699,1.619,3.402,2.131,5.296c0.238,0.939,0.383,1.906,0.376,2.885
				C342.448,182.319,342.326,183.387,341.652,184.106z"/>
			<path style="fill:#455A64;" d="M377.122,188.437c-2.109,0.272-4.321,0.015-6.293-0.87c-1.982-0.866-3.701-2.233-5.214-3.756
				c-3.017-3.089-5.277-6.791-7.323-10.537c-2.048-3.75-3.825-7.669-5.589-11.515c-1.844-3.796-3.945-7.478-6.573-10.748
				c-2.622-3.251-5.78-6.115-9.494-7.946c-3.696-1.862-7.895-2.567-12.014-2.185c-4.128,0.35-8.198,1.652-11.553,4.06
				c-3.327,2.385-5.999,5.867-7.305,9.692c-0.065,0.192-0.206,0.34-0.374,0.423c-0.693,0.332-1.468,0.924-2.123,1.522
				c-0.659,0.625-1.302,1.28-1.871,2.007c-1.151,1.438-2.149,3.018-2.988,4.685c-1.696,3.332-2.827,6.941-3.725,10.603
				c-0.885,3.674-1.649,7.381-2.169,11.129c-0.481,3.747-0.829,7.536-0.606,11.325c-0.428-3.777-0.218-7.599,0.133-11.381
				c0.389-3.783,0.994-7.548,1.826-11.262c0.824-3.715,1.891-7.423,3.564-10.898c0.828-1.74,1.827-3.408,3.011-4.957
				c1.218-1.541,2.525-2.967,4.451-3.965l-0.374,0.422c1.42-4.254,4.187-7.852,7.737-10.468c3.567-2.602,7.894-4.013,12.232-4.411
				c4.36-0.452,8.874,0.392,12.785,2.386c3.934,1.978,7.211,5.011,9.896,8.39c2.679,3.404,4.84,7.167,6.603,11.081
				c1.699,3.934,3.358,7.819,5.311,11.594c0.973,1.882,1.996,3.741,3.136,5.521c1.125,1.789,2.355,3.515,3.776,5.074
				c1.426,1.543,3.053,2.936,4.956,3.851C372.845,188.222,374.996,188.613,377.122,188.437z"/>
			<path style="fill:#455A64;" d="M306.347,152.74c0.003-1.324,0.284-2.638,0.637-3.916c0.357-1.283,0.845-2.523,1.392-3.738
				c1.105-2.427,2.572-4.668,4.184-6.776c1.615-2.113,3.487-4.005,5.442-5.78c0.985-0.88,2.039-1.681,3.066-2.503
				c1.085-0.754,2.169-1.501,3.288-2.192c-0.906,0.964-1.853,1.865-2.788,2.772l-2.719,2.797c-0.845,0.985-1.798,1.865-2.598,2.882
				l-1.269,1.461l-1.191,1.521c-1.586,2.025-3.052,4.143-4.336,6.373C308.206,147.884,307.049,150.207,306.347,152.74z"/>
			<path style="fill:#455A64;" d="M340.573,176.167c0.795,1.541,1.681,3.016,2.708,4.39c0.996,1.391,2.089,2.703,3.267,3.922
				c2.358,2.435,5.08,4.496,8.099,5.969c1.494,0.768,3.073,1.365,4.694,1.816c0.802,0.26,1.631,0.419,2.454,0.607
				c0.834,0.126,1.664,0.306,2.509,0.383c3.371,0.37,6.818,0.296,10.263-0.108c-3.327,0.975-6.838,1.46-10.361,1.275
				c-3.518-0.163-7.041-1.047-10.225-2.63c-3.183-1.586-6.026-3.831-8.297-6.529C343.403,182.58,341.615,179.482,340.573,176.167z"
				/>
		</g>
		<g>
			<path style="fill:#FFBE9D;" d="M245.238,236.8c0,0-0.291-6.419-0.635-7.676c-0.345-1.257-10.503-11.21-11.895-11.242
				c-1.392-0.032-14.524-1.693-16.271-0.641c-1.747,1.052-1.178,3.822,0.928,4.66l0.574,1.6c0,0-4.761,0.646-5.633,2.659
				c-0.871,2.012,1.674,4.074,7.664,1.818c0,0-6.81,2.337-7.204,4.497c-0.394,2.16,3.339,2.201,3.339,2.201
				s-0.413,2.698,2.526,2.599c2.939-0.098,6.87-2.465,6.87-2.465l11.166,5.066L245.238,236.8z"/>
			<path style="fill:#E08963;" d="M219.97,227.977c-5.99,2.255-8.535,0.194-7.664-1.818c0.871-2.012,5.633-2.659,5.633-2.659
				l-0.574-1.6l6.664,7.231l1.576,5.725l-0.103-0.047c0,0-3.931,2.367-6.87,2.465c-2.939,0.098-2.526-2.599-2.526-2.599
				s-3.733-0.042-3.34-2.201C213.16,230.314,219.97,227.977,219.97,227.977z"/>
			<path style="fill:#A05E47;" d="M225.269,224.497c2.031,0.576,3.994,1.313,5.936,2.103l0.085,0.035l0.06,0.077
				c1.592,2.048,3.127,4.139,4.456,6.389c-1.829-1.866-3.452-3.889-5.019-5.956l0.144,0.111
				C229.006,226.424,227.104,225.541,225.269,224.497z"/>
			<g>
				<path style="fill:#C9C9C9;" d="M252.321,235.694l-3.675-1.447l1.022-2.594l3.675,1.447c0.478,0.188,0.712,0.728,0.524,1.205
					l-0.341,0.865C253.339,235.647,252.799,235.882,252.321,235.694z"/>
				<path style="fill:#263238;" d="M249.776,235.526l-40.865-16.093l1.602-4.067l40.865,16.093c0.473,0.186,0.705,0.72,0.519,1.193
					l-0.928,2.355C250.783,235.48,250.248,235.712,249.776,235.526z"/>
				
					<rect x="246.232" y="234.028" transform="matrix(0.9304 0.3664 -0.3664 0.9304 103.2039 -74.0542)" style="fill:#938A86;" width="0.883" height="1.604"/>
				
					<rect x="246.887" y="230.155" transform="matrix(0.9305 0.3664 -0.3664 0.9305 102.3538 -74.5836)" style="fill:#C9C9C9;" width="1.534" height="4.371"/>
				
					<rect x="232.351" y="232.687" transform="matrix(0.9304 0.3664 -0.3664 0.9304 102.1783 -71.8671)" style="fill:#C9C9C9;" width="16.097" height="1.069"/>
				<polygon style="fill:#263238;" points="203.421,214.46 201.352,214.143 203.064,215.368 				"/>
				<polygon style="fill:#C9C9C9;" points="210.512,215.365 202.885,214.295 202.558,215.128 208.911,219.432 				"/>
			</g>
			<path style="fill:#FFBE9D;" d="M220.417,231.143c3.164,5.693,5.838,20.528,8.675,23.892c1.674,1.984,3.545,3.333,4.799,4.106
				c0.963,0.594,1.673,1.514,2.02,2.591c0.309,0.958,0.739,2.289,1.257,3.886c3.423-1.628,6.837-3.276,10.225-4.978
				c0.534-0.268,1.059-0.553,1.592-0.823c-2.825-6.189-3.656-9.219-4.024-11.393c-0.456-2.69,0.278-11.624,0.278-11.624
				l-14.961-4.304c0,0-3.594-8.595-8.721-11.239c-2.564-1.322-4.178-0.85-5.151-0.048c-0.944,0.778-1.037,2.2-0.298,3.174
				C217.036,225.606,218.551,227.786,220.417,231.143z"/>
			<path style="fill:#A05E47;" d="M235.203,238.452c-0.932-0.9-1.82-1.837-2.731-2.755c-0.447-0.466-0.818-0.995-1.242-1.48
				l-1.231-1.489l-0.035-0.042l-0.023-0.056c-0.513-1.249-1.139-2.481-1.813-3.666c-0.679-1.186-1.423-2.336-2.271-3.399
				c-0.851-1.055-1.757-2.082-2.831-2.893c-1.061-0.818-2.246-1.47-3.527-1.786l0.042,0.007c-0.637-0.05-1.329-0.008-1.946,0.152
				c-0.617,0.16-1.189,0.47-1.453,0.973c-0.345,0.45-0.364,1.13-0.095,1.719l0.946,1.865c-0.433-0.55-0.862-1.105-1.283-1.675
				c-0.419-0.606-0.606-1.508-0.208-2.27c0.421-0.739,1.195-1.13,1.908-1.313c0.734-0.186,1.454-0.229,2.205-0.172l0.02,0.002
				l0.022,0.005c1.415,0.347,2.691,1.057,3.814,1.922c1.136,0.861,2.075,1.926,2.954,3.016c0.876,1.098,1.637,2.276,2.331,3.487
				c0.691,1.217,1.321,2.453,1.858,3.761l-0.058-0.098l1.231,1.489c0.396,0.508,0.847,0.971,1.221,1.497
				C233.74,236.319,234.493,237.367,235.203,238.452z"/>
		</g>
		<g>
			<path style="fill:#FF725E;" d="M245.962,253.446l-13.29,9.646c-0.988,0.717-1.299,2.053-0.727,3.133l24.84,46.943
				c4.22,7.974,15.473,8.432,20.327,0.827l14.396-22.559l4.644,8.197l-11.826,35.748c-0.519,1.568,0.207,3.267,1.694,3.988
				c3.784,1.834,11.683,6.342,23.1,7.117c1.411,0.096,2.609-1.037,2.609-2.451v-27.729l-3.254-52.518l-4.535-20.841l-4.635-1.945
				l-30.359,47.238l-19.413-34.024C248.81,252.947,247.145,252.588,245.962,253.446z"/>
			<path style="fill:#FF725E;" d="M333.259,317.681l-0.839,26.955c-0.034,1.096,0.846,1.997,1.942,1.986
				c5.357-0.052,20.363-1.054,31.432-10.083c1.332-1.086,1.817-2.909,1.269-4.537l-8.338-24.78v-37.485l30.209,24.06l-14.087,26.046
				c-0.94,1.738-0.43,3.906,1.187,5.042l9.408,6.613c1.875,1.318,4.477,0.741,5.62-1.246l17.205-29.926
				c3.647-6.344,2.627-14.344-2.511-19.554c-14.415-14.619-42.909-41.997-53.758-41.601c-14.789,0.54-15.67,26.448-15.67,26.448
				L333.259,317.681z"/>
			<g>
				<path style="fill:#AD4F4B;" d="M341.074,230.482c0,0-5.791,9.566-7.815,28.331c-2.024,18.764,0,58.869,0,58.869
					s12.326-42.864,12.326-47.279c0-4.415-4.511-13.981-4.511-13.981s16.652-11.59,17.572-14.349
					c0.276-0.828-0.193-2.054-0.985-3.364c-2.481-4.106-6.784-6.775-11.53-7.477L341.074,230.482z"/>
				<path style="fill:#AD4F4B;" d="M310.673,232.784c0,0-10.03,1.483-14.1,8.051c-2.814,4.54,9.422,12.699,9.422,12.699
					s-5.326,13.109-4.916,19.254c0.41,6.145,10.651,44.892,10.651,44.892L310.673,232.784z"/>
			</g>
		</g>
		<g>
			<path style="fill:#FFBE9D;" d="M385.813,331.785l-9.778-6.901c0,0-1.107-1.049-1.504-2.118l-1.765,2.288l-10.252-6.573
				l1.106,3.286c0,0-10.719-1.766-13.359-1.536c-2.641,0.23-11.597,5.741-13.434,8.497c-1.837,2.756,2.756,1.952,7.234-0.919
				c4.478-2.871,5.971-3.355,5.971-3.355l6.889,1.977c0,0-5.741-0.115-7.923,0.918c-2.182,1.034-12.428,8.956-12.587,10.449
				c-0.159,1.493,0.989,2.182,2.252,2.067c0,0-0.574,2.871,2.411,2.067c2.985-0.804,12.746-5.167,13.894-5.282
				c1.148-0.115,9.386,1.001,9.386,1.001s-7.664,0.491-9.845,1.525c-2.182,1.034-10.062,5.089-10.449,5.856
				c-0.387,0.767,0.23,2.913,3.904,1.456c3.674-1.456,13.32-4.901,13.32-4.901s12.401,0.804,18.602-2.986
				c2.951-1.803,5.113-4.383,6.578-6.596L385.813,331.785z"/>
			<g>
				<path style="fill:#A05E47;" d="M362.151,331.289c-2.173,0.116-4.342,0.124-6.51,0.114c-0.535,0.009-1.106-0.016-1.588,0.009
					c-0.5,0.033-0.993,0.139-1.46,0.311c-0.475,0.175-0.895,0.388-1.338,0.69l-1.364,0.884c-1.833,1.156-3.666,2.31-5.542,3.399
					l-2.815,1.63c-0.958,0.513-1.897,1.054-2.872,1.541c0.852-0.678,1.739-1.302,2.608-1.955l2.665-1.866
					c1.778-1.242,3.597-2.418,5.418-3.593l1.376-0.864c0.458-0.3,1.007-0.591,1.56-0.761c0.558-0.178,1.141-0.276,1.723-0.289
					c0.601-0.012,1.112,0.06,1.66,0.099C357.834,330.807,359.995,330.993,362.151,331.289z"/>
				<path style="fill:#A05E47;" d="M336.917,336.955c2.697-2.984,5.641-5.715,8.853-8.166c0.819-0.596,1.637-1.187,2.583-1.674
					c0.222-0.127,0.489-0.232,0.78-0.315c0.292-0.108,0.519-0.104,0.78-0.157c0.504-0.074,1.008-0.13,1.51-0.169
					c2.008-0.182,4.016-0.214,6.026-0.157l-5.929,0.931c-0.962,0.198-2.021,0.248-2.735,0.709c-0.823,0.451-1.633,1.039-2.419,1.633
					c-1.591,1.179-3.139,2.439-4.707,3.675C340.102,334.515,338.522,335.745,336.917,336.955z"/>
				<path style="fill:#A05E47;" d="M344.06,345.034c2.932-2.231,6.024-4.199,9.325-5.88c0.423-0.198,0.844-0.395,1.297-0.567
					c0.208-0.093,0.492-0.16,0.729-0.227c0.233-0.043,0.465-0.09,0.694-0.119c0.92-0.126,1.829-0.242,2.746-0.317
					c1.828-0.174,3.662-0.261,5.503-0.271c-1.797,0.397-3.599,0.742-5.401,1.045l-2.688,0.477l-0.656,0.13
					c-0.2,0.066-0.367,0.098-0.576,0.194c-0.401,0.159-0.806,0.358-1.209,0.553c-1.622,0.794-3.227,1.671-4.848,2.513
					C347.361,343.422,345.723,344.245,344.06,345.034z"/>
			</g>
		</g>
	</g>
	<g>
		<path style="fill:#B2B6B8;" d="M213.873,266.119H72.361c-2.761,0-5,2.239-5,5v21.788c0,2.761,2.239,5,5,5h141.512
			c2.762,0,5-2.239,5-5v-21.788C218.873,268.358,216.634,266.119,213.873,266.119z"/>
		<g>
			<path style="fill:#FF725E;" d="M120.09,266.119H72.361c-2.761,0-5,2.239-5,5v21.788c0,2.761,2.239,5,5,5h47.729V266.119z"/>
			<path style="fill:#80392F;" d="M101.381,285.653l-6.509,8.093l-7.719-11.379c-2.444-3.603-7.782-3.513-10.104,0.17l-8.531,13.533
				c0.917,1.112,2.288,1.836,3.842,1.836h47.729l-9.194-12.119C108.523,282.66,103.842,282.593,101.381,285.653z"/>
			<path style="fill:#FFAEA6;" d="M109.489,275.161c0,2.517-2.041,4.558-4.558,4.558c-2.517,0-4.558-2.041-4.558-4.558
				c0-2.517,2.041-4.558,4.558-4.558C107.449,270.603,109.489,272.644,109.489,275.161z"/>
		</g>
		<g>
			<rect x="138.887" y="272.162" style="fill:#FFFFFF;" width="62.502" height="2.038"/>
			<rect x="138.887" y="278.05" style="fill:#FFFFFF;" width="39.893" height="2.038"/>
			<rect x="128.06" y="283.938" style="fill:#FFFFFF;" width="73.329" height="2.038"/>
			<rect x="128.06" y="289.826" style="fill:#FFFFFF;" width="60.665" height="2.038"/>
			<g>
				<g>
					<path style="fill:#FF725E;" d="M130.714,281.607v-7.392h-2.655v-2.053h8.067v2.053h-2.655v7.392H130.714z"/>
				</g>
			</g>
		</g>
	</g>
</g>
</svg>
